<svg width='200' height='200' fill="#164F86" xmlns="http://www.w3.org/2000/svg" xmlns:xlink="http://www.w3.org/1999/xlink" version="1.1" x="0px" y="0px" viewBox="0 0 64 64" enable-background="new 0 0 64 64" xml:space="preserve"><g><path d="M59.796,44.426c-2.042-3.729-5.849-1.205-5.849-1.205l-10.123,5.68c-0.281,0.158-0.544,0.359-0.777,0.582   c-10.162,9.697-19.545,2.151-19.545,2.151c6.351,2.23,12.478,0.425,15.227-1.841c2.514-1.99,2.428-4.38-2.446-4.709   c-7.242-0.489-9.656-1.768-10.46-2.596c-0.846-0.871-1.75-1.698-2.831-2.251C13.107,35.174,3.5,43.757,3.5,43.757l0.569,1.056   l6.424,11.932l0.99,1.841c0.031,0.058,0.1,0.087,0.161,0.064l0.001,0c0.848-0.322,1.626-0.899,2.346-1.478   c1.674-1.344,3.299-1.28,5.144-0.261c3.201,1.772,6.511,3.344,9.736,5.073c0.707,0.38,1.407,0.683,2.099,0.906   c0.004,0.001,0.009,0.002,0.013,0.004c2.662,0.595,5.001,0.191,6.75-0.418c1.985-0.69,3.212-1.645,3.289-1.706   c0.003-0.002,0.006-0.004,0.009-0.006l17.081-11.238c0.803-0.558,1.385-1.105,1.784-1.626   C60.989,46.469,60.376,45.486,59.796,44.426z"/><g><path d="M51.901,40.991v-18.29l4.028,2.494V14.882l-6.516-4.036V2.911c0-0.555-0.45-1.005-1.005-1.005h-6.027    c-0.555,0-1.005,0.45-1.005,1.005v2.958l-7.101-4.398c-1.414-0.876-3.206-0.876-4.62,0.003L8.071,14.869v10.32l4.022-2.496v13.481    c1.42-0.327,2.936-0.514,4.516-0.493V19.891l4.033-2.503l7.277-4.517l4.052-2.514l4.059,2.514l7.294,4.517l4.062,2.515v22.778    L51.901,40.991z"/><path d="M37.421,34.718c-0.368,0.66-0.868,1.195-1.499,1.602c-0.631,0.409-1.366,0.703-2.203,0.881    c-0.255,0.054-0.515,0.101-0.78,0.137v1.299h-1.877v-1.169c-0.955,0-1.861-0.081-2.722-0.242    c-0.491-0.093-0.944-0.211-1.361-0.356c-0.525-0.183-0.88-0.675-0.88-1.231v-1.73c0-0.52,0.567-0.841,1.013-0.574    c0.41,0.245,0.838,0.447,1.282,0.607c0.826,0.295,1.66,0.443,2.502,0.443c0.056,0,0.111,0,0.166-0.002    c0.424-0.008,0.8-0.053,1.127-0.131c0.287-0.069,0.537-0.159,0.75-0.271c0.061-0.032,0.118-0.064,0.172-0.1    c0.247-0.158,0.431-0.344,0.553-0.559c0.122-0.214,0.183-0.447,0.183-0.698c0-0.34-0.097-0.643-0.292-0.91    c-0.158-0.218-0.363-0.422-0.616-0.613c-0.057-0.045-0.117-0.087-0.179-0.129c-0.336-0.226-0.734-0.445-1.196-0.655    c-0.163-0.074-0.33-0.149-0.501-0.225c-0.315-0.137-0.647-0.278-0.992-0.419c-1.36-0.566-2.374-1.258-3.042-2.076    c-0.668-0.818-1.002-1.805-1.002-2.963c0-0.907,0.183-1.686,0.547-2.338c0.364-0.651,0.86-1.188,1.487-1.608    c0.628-0.421,1.354-0.731,2.18-0.929c0.269-0.064,0.544-0.118,0.822-0.162v-1.305h1.877v1.169    c0.876,0.004,1.654,0.059,2.335,0.164c0.327,0.052,0.643,0.115,0.948,0.192c0.58,0.146,0.989,0.665,0.989,1.263v1.528    c0,0.491-0.506,0.819-0.954,0.617c-0.344-0.153-0.698-0.281-1.062-0.382c-0.364-0.101-0.726-0.176-1.087-0.225    c-0.36-0.048-0.702-0.073-1.025-0.073c-0.048,0-0.096,0-0.143,0.002c-0.39,0.007-0.747,0.049-1.072,0.125    c-0.309,0.071-0.578,0.169-0.805,0.292c-0.041,0.021-0.08,0.043-0.118,0.067c-0.251,0.153-0.445,0.337-0.582,0.552    c-0.138,0.214-0.207,0.456-0.207,0.723c0,0.292,0.077,0.552,0.231,0.783c0.155,0.231,0.373,0.45,0.656,0.656    c0.007,0.005,0.014,0.011,0.021,0.015c0.279,0.2,0.616,0.398,1.011,0.592c0.266,0.131,0.554,0.264,0.866,0.399    c0.163,0.07,0.332,0.142,0.506,0.214c0.697,0.292,1.323,0.601,1.877,0.929c0.554,0.328,1.03,0.698,1.427,1.111    c0.396,0.414,0.699,0.884,0.91,1.415c0.211,0.531,0.316,1.147,0.316,1.852C37.974,33.243,37.79,34.058,37.421,34.718z"/></g></g></svg>